<svg width="400" height="400" viewBox="-55 60 300 300" xmlns="http://www.w3.org/2000/svg" >
<rect x="-55" y="0" width="400" height="1200" fill="rgb(5,5,5)" />
<path d="M 50 190 c -20 1 -40 -5 -40 10 c 0 15 20 5 40 10 c 10 0 -5 40 10 40 c 15 0 -5 -40 10 -40 c 5 1 5 -2 10 0 c 10 0 -5 40 10 40 c 15 0 -5 -40 10 -40 c 5 1 5 -1 10 0 c 10 0 -5 40 10 40 c 15 0 -5 -40 10 -40 c 5 1 1 -1 10 0 c 10 0 -5 40 10 40 c 10 0 6 -40 7 -40 c 4 -10 5 -20 -5 -20 c -5 0 -10 -1 -20 0 c -10 0 5 -25 -10 -25 c -15 0 5 25  -10 25 c -5 0 -5 1 -10 0 c -10 0 5 -25 -10 -25 c -15 0 5 25 -10 25 c -10 0 -10 1 -12 0 c -10 0 5 -15 -10 -15 c -15 0 5 15 -10 15" fill="rgb(120,240,240)" />
</svg>